solid OpenSCAD_Model
  facet normal -1 -0 -0
    outer loop
      vertex -50 19 -1
      vertex -50 19 15
      vertex -50 23 -1
    endloop
  endfacet
  facet normal -1 0 0
    outer loop
      vertex -50 23 -1
      vertex -50 19 15
      vertex -50 23 15
    endloop
  endfacet
  facet normal 0 -1 0
    outer loop
      vertex -46.8753 19 6.50077
      vertex -50 19 -1
      vertex -41.5 19 -1
    endloop
  endfacet
  facet normal 0 -1 0
    outer loop
      vertex -50 19 15
      vertex -50 19 -1
      vertex -46.8753 19 6.50077
    endloop
  endfacet
  facet normal 0 -1 0
    outer loop
      vertex -50 19 15
      vertex -46.8753 19 6.50077
      vertex -47.2 19 7.5
    endloop
  endfacet
  facet normal 0 -1 0
    outer loop
      vertex -43.8 19 7.5
      vertex -44.1247 19 6.50077
      vertex -41.5 19 -1
    endloop
  endfacet
  facet normal 0 -1 0
    outer loop
      vertex -50 19 15
      vertex -47.2 19 7.5
      vertex -46.8753 19 8.49924
    endloop
  endfacet
  facet normal 0 -1 0
    outer loop
      vertex -44.9747 19 5.8832
      vertex -46.0253 19 5.8832
      vertex -41.5 19 -1
    endloop
  endfacet
  facet normal 0 -1 0
    outer loop
      vertex -41.5 19 15
      vertex -50 19 15
      vertex -46.0253 19 9.1168
    endloop
  endfacet
  facet normal 0 -1 0
    outer loop
      vertex -44.1247 19 6.50077
      vertex -44.9747 19 5.8832
      vertex -41.5 19 -1
    endloop
  endfacet
  facet normal 0 -1 0
    outer loop
      vertex -41.5 19 15
      vertex -46.0253 19 9.1168
      vertex -44.9747 19 9.1168
    endloop
  endfacet
  facet normal 0 -1 0
    outer loop
      vertex -41.5 19 15
      vertex -44.9747 19 9.1168
      vertex -44.1247 19 8.49924
    endloop
  endfacet
  facet normal 0 -1 0
    outer loop
      vertex -41.5 19 15
      vertex -43.8 19 7.5
      vertex -41.5 19 -1
    endloop
  endfacet
  facet normal 0 -1 0
    outer loop
      vertex -41.5 19 15
      vertex -44.1247 19 8.49924
      vertex -43.8 19 7.5
    endloop
  endfacet
  facet normal 0 -1 0
    outer loop
      vertex -46.0253 19 5.8832
      vertex -46.8753 19 6.50077
      vertex -41.5 19 -1
    endloop
  endfacet
  facet normal 0 -1 -0
    outer loop
      vertex -46.8753 19 8.49924
      vertex -46.0253 19 9.1168
      vertex -50 19 15
    endloop
  endfacet
  facet normal -0 -0 -1
    outer loop
      vertex -50 19 -1
      vertex -50 23 -1
      vertex -41.5 19 -1
    endloop
  endfacet
  facet normal 0 -0 -1
    outer loop
      vertex -41.5 19 -1
      vertex -50 23 -1
      vertex 0 23 -1
    endloop
  endfacet
  facet normal -0 0 -1
    outer loop
      vertex -8.5 19 -1
      vertex 0 23 -1
      vertex 0 19 -1
    endloop
  endfacet
  facet normal -0 0 -1
    outer loop
      vertex -41.5 19 -1
      vertex 0 23 -1
      vertex -8.5 19 -1
    endloop
  endfacet
  facet normal 0 0 -1
    outer loop
      vertex -8.5 19 -1
      vertex -8.5 0 -1
      vertex -41.5 19 -1
    endloop
  endfacet
  facet normal 0 0 -1
    outer loop
      vertex -41.5 19 -1
      vertex -8.5 0 -1
      vertex -41.5 0 -1
    endloop
  endfacet
  facet normal 0 1 0
    outer loop
      vertex -44.1247 23 8.49924
      vertex -50 23 15
      vertex 0 23 -1
    endloop
  endfacet
  facet normal 0 1 0
    outer loop
      vertex -5.02533 23 9.1168
      vertex -50 23 15
      vertex 0 23 15
    endloop
  endfacet
  facet normal 0 1 0
    outer loop
      vertex -50 23 -1
      vertex -50 23 15
      vertex -47.2 23 7.5
    endloop
  endfacet
  facet normal 0 1 0
    outer loop
      vertex -50 23 -1
      vertex -47.2 23 7.5
      vertex -46.8753 23 6.50077
    endloop
  endfacet
  facet normal 0 1 0
    outer loop
      vertex -50 23 -1
      vertex -46.8753 23 6.50077
      vertex -46.0253 23 5.8832
    endloop
  endfacet
  facet normal 0 1 0
    outer loop
      vertex -50 23 -1
      vertex -46.0253 23 5.8832
      vertex 0 23 -1
    endloop
  endfacet
  facet normal 0 1 0
    outer loop
      vertex -46.0253 23 5.8832
      vertex -44.9747 23 5.8832
      vertex 0 23 -1
    endloop
  endfacet
  facet normal 0 1 -0
    outer loop
      vertex -43.8 23 7.5
      vertex 0 23 -1
      vertex -44.1247 23 6.50077
    endloop
  endfacet
  facet normal 0 1 -0
    outer loop
      vertex -3.97467 23 5.8832
      vertex 0 23 -1
      vertex -5.02533 23 5.8832
    endloop
  endfacet
  facet normal 0 1 0
    outer loop
      vertex -46.0253 23 9.1168
      vertex -50 23 15
      vertex -44.9747 23 9.1168
    endloop
  endfacet
  facet normal 0 1 0
    outer loop
      vertex -44.9747 23 9.1168
      vertex -50 23 15
      vertex -44.1247 23 8.49924
    endloop
  endfacet
  facet normal 0 1 0
    outer loop
      vertex -43.8 23 7.5
      vertex -44.1247 23 8.49924
      vertex 0 23 -1
    endloop
  endfacet
  facet normal 0 1 0
    outer loop
      vertex -46.8753 23 8.49924
      vertex -50 23 15
      vertex -46.0253 23 9.1168
    endloop
  endfacet
  facet normal 0 1 0
    outer loop
      vertex -47.2 23 7.5
      vertex -50 23 15
      vertex -46.8753 23 8.49924
    endloop
  endfacet
  facet normal 0 1 0
    outer loop
      vertex -5.87533 23 6.50077
      vertex -50 23 15
      vertex -6.2 23 7.5
    endloop
  endfacet
  facet normal 0 1 0
    outer loop
      vertex 0 23 -1
      vertex -50 23 15
      vertex -5.87533 23 6.50077
    endloop
  endfacet
  facet normal 0 1 0
    outer loop
      vertex 0 23 -1
      vertex -5.87533 23 6.50077
      vertex -5.02533 23 5.8832
    endloop
  endfacet
  facet normal 0 1 0
    outer loop
      vertex -3.12467 23 8.49924
      vertex 0 23 15
      vertex -2.8 23 7.5
    endloop
  endfacet
  facet normal 0 1 0
    outer loop
      vertex 0 23 -1
      vertex -3.97467 23 5.8832
      vertex -3.12467 23 6.50077
    endloop
  endfacet
  facet normal 0 1 0
    outer loop
      vertex 0 23 -1
      vertex -3.12467 23 6.50077
      vertex 0 23 15
    endloop
  endfacet
  facet normal 0 1 0
    outer loop
      vertex -3.12467 23 6.50077
      vertex -2.8 23 7.5
      vertex 0 23 15
    endloop
  endfacet
  facet normal 0 1 0
    outer loop
      vertex -5.02533 23 9.1168
      vertex 0 23 15
      vertex -3.97467 23 9.1168
    endloop
  endfacet
  facet normal 0 1 0
    outer loop
      vertex -3.12467 23 8.49924
      vertex -3.97467 23 9.1168
      vertex 0 23 15
    endloop
  endfacet
  facet normal 0 1 0
    outer loop
      vertex -5.87533 23 8.49924
      vertex -50 23 15
      vertex -5.02533 23 9.1168
    endloop
  endfacet
  facet normal 0 1 0
    outer loop
      vertex -6.2 23 7.5
      vertex -50 23 15
      vertex -5.87533 23 8.49924
    endloop
  endfacet
  facet normal 0 1 -0
    outer loop
      vertex -44.1247 23 6.50077
      vertex 0 23 -1
      vertex -44.9747 23 5.8832
    endloop
  endfacet
  facet normal 0 0 1
    outer loop
      vertex -8.5 19 15
      vertex 0 19 15
      vertex -50 23 15
    endloop
  endfacet
  facet normal 0 -0 1
    outer loop
      vertex -50 23 15
      vertex -50 19 15
      vertex -41.5 19 15
    endloop
  endfacet
  facet normal 0 0 1
    outer loop
      vertex -8.5 12.5 15
      vertex -50 23 15
      vertex -41.5 19 15
    endloop
  endfacet
  facet normal 0 0 1
    outer loop
      vertex -41.5 12.5 15
      vertex -8.5 12.5 15
      vertex -41.5 19 15
    endloop
  endfacet
  facet normal 0 0 1
    outer loop
      vertex -8.5 12.5 15
      vertex -8.5 19 15
      vertex -50 23 15
    endloop
  endfacet
  facet normal 0 0 1
    outer loop
      vertex 0 19 15
      vertex 0 23 15
      vertex -50 23 15
    endloop
  endfacet
  facet normal -1 0 -0
    outer loop
      vertex -41.5 0 -1
      vertex -41.5 0 15
      vertex -41.5 7.5 3
    endloop
  endfacet
  facet normal -1 -0 0
    outer loop
      vertex -41.5 0 -1
      vertex -41.5 7.5 3
      vertex -41.5 19 -1
    endloop
  endfacet
  facet normal -1 0 0
    outer loop
      vertex -41.5 10.5 13
      vertex -41.5 19 -1
      vertex -41.5 10.5 2.5
    endloop
  endfacet
  facet normal -1 0 0
    outer loop
      vertex -41.5 7.5 3
      vertex -41.5 9.5 3
      vertex -41.5 9.5 2.5
    endloop
  endfacet
  facet normal -1 0 0
    outer loop
      vertex -41.5 7.5 3
      vertex -41.5 9.5 2.5
      vertex -41.5 19 -1
    endloop
  endfacet
  facet normal -1 0 0
    outer loop
      vertex -41.5 9.5 2.5
      vertex -41.5 10.5 2.5
      vertex -41.5 19 -1
    endloop
  endfacet
  facet normal -1 -0 0
    outer loop
      vertex -41.5 10.5 13
      vertex -41.5 12.5 15
      vertex -41.5 19 -1
    endloop
  endfacet
  facet normal -1 0 0
    outer loop
      vertex -41.5 19 -1
      vertex -41.5 12.5 15
      vertex -41.5 19 15
    endloop
  endfacet
  facet normal -1 0 0
    outer loop
      vertex -41.5 7.5 3
      vertex -41.5 0 15
      vertex -41.5 6.5 15
    endloop
  endfacet
  facet normal -1 0 0
    outer loop
      vertex -41.5 7.5 3
      vertex -41.5 6.5 15
      vertex -41.5 7.5 14
    endloop
  endfacet
  facet normal 0.587785 -1.79638e-016 0.809017
    outer loop
      vertex -46.0253 19 5.8832
      vertex -46.0253 23 5.8832
      vertex -46.8753 23 6.50077
    endloop
  endfacet
  facet normal 0.587785 -1.79638e-016 0.809017
    outer loop
      vertex -46.8753 19 6.50077
      vertex -46.0253 19 5.8832
      vertex -46.8753 23 6.50077
    endloop
  endfacet
  facet normal 0.951057 -6.86155e-017 0.309017
    outer loop
      vertex -46.8753 19 6.50077
      vertex -46.8753 23 6.50077
      vertex -47.2 23 7.5
    endloop
  endfacet
  facet normal 0.951057 -6.86155e-017 0.309017
    outer loop
      vertex -47.2 19 7.5
      vertex -46.8753 19 6.50077
      vertex -47.2 23 7.5
    endloop
  endfacet
  facet normal 0 -2.22045e-016 1
    outer loop
      vertex -44.9747 19 5.8832
      vertex -44.9747 23 5.8832
      vertex -46.0253 23 5.8832
    endloop
  endfacet
  facet normal 0 -2.22045e-016 1
    outer loop
      vertex -46.0253 19 5.8832
      vertex -44.9747 19 5.8832
      vertex -46.0253 23 5.8832
    endloop
  endfacet
  facet normal -0.587785 -1.79638e-016 0.809017
    outer loop
      vertex -44.1247 19 6.50077
      vertex -44.1247 23 6.50077
      vertex -44.9747 23 5.8832
    endloop
  endfacet
  facet normal -0.587785 -1.79638e-016 0.809017
    outer loop
      vertex -44.9747 19 5.8832
      vertex -44.1247 19 6.50077
      vertex -44.9747 23 5.8832
    endloop
  endfacet
  facet normal -0.951057 -6.86155e-017 0.309017
    outer loop
      vertex -43.8 23 7.5
      vertex -44.1247 23 6.50077
      vertex -43.8 19 7.5
    endloop
  endfacet
  facet normal -0.951057 -6.86167e-017 0.309017
    outer loop
      vertex -43.8 19 7.5
      vertex -44.1247 23 6.50077
      vertex -44.1247 19 6.50077
    endloop
  endfacet
  facet normal -0.951057 6.86155e-017 -0.309017
    outer loop
      vertex -43.8 23 7.5
      vertex -43.8 19 7.5
      vertex -44.1247 23 8.49924
    endloop
  endfacet
  facet normal -0.951057 0 -0.309017
    outer loop
      vertex -44.1247 23 8.49924
      vertex -43.8 19 7.5
      vertex -44.1247 19 8.49924
    endloop
  endfacet
  facet normal -0.587785 0 -0.809017
    outer loop
      vertex -44.1247 23 8.49924
      vertex -44.1247 19 8.49924
      vertex -44.9747 23 9.1168
    endloop
  endfacet
  facet normal -0.587785 3.59276e-016 -0.809017
    outer loop
      vertex -44.9747 23 9.1168
      vertex -44.1247 19 8.49924
      vertex -44.9747 19 9.1168
    endloop
  endfacet
  facet normal 0 4.44089e-016 -1
    outer loop
      vertex -44.9747 23 9.1168
      vertex -44.9747 19 9.1168
      vertex -46.0253 23 9.1168
    endloop
  endfacet
  facet normal 0 4.44089e-016 -1
    outer loop
      vertex -46.0253 23 9.1168
      vertex -44.9747 19 9.1168
      vertex -46.0253 19 9.1168
    endloop
  endfacet
  facet normal 0.587785 3.59276e-016 -0.809017
    outer loop
      vertex -46.0253 23 9.1168
      vertex -46.0253 19 9.1168
      vertex -46.8753 23 8.49924
    endloop
  endfacet
  facet normal 0.587785 0 -0.809017
    outer loop
      vertex -46.8753 23 8.49924
      vertex -46.0253 19 9.1168
      vertex -46.8753 19 8.49924
    endloop
  endfacet
  facet normal 0.951057 0 -0.309017
    outer loop
      vertex -47.2 23 7.5
      vertex -46.8753 23 8.49924
      vertex -46.8753 19 8.49924
    endloop
  endfacet
  facet normal 0.951057 6.86155e-017 -0.309017
    outer loop
      vertex -47.2 19 7.5
      vertex -47.2 23 7.5
      vertex -46.8753 19 8.49924
    endloop
  endfacet
  facet normal 0 -1 0
    outer loop
      vertex -23 0 3
      vertex -41.5 0 -1
      vertex -8.5 0 -1
    endloop
  endfacet
  facet normal 0 -1 0
    outer loop
      vertex -27 0 3
      vertex -27 0 15
      vertex -41.5 0 15
    endloop
  endfacet
  facet normal 0 -1 0
    outer loop
      vertex -8.5 0 15
      vertex -23 0 15
      vertex -8.5 0 -1
    endloop
  endfacet
  facet normal 0 -1 0
    outer loop
      vertex -27 0 3
      vertex -41.5 0 -1
      vertex -23 0 3
    endloop
  endfacet
  facet normal 0 -1 0
    outer loop
      vertex -41.5 0 15
      vertex -41.5 0 -1
      vertex -27 0 3
    endloop
  endfacet
  facet normal 0 -1 0
    outer loop
      vertex -23 0 15
      vertex -23 0 3
      vertex -8.5 0 -1
    endloop
  endfacet
  facet normal 1 0 -0
    outer loop
      vertex -8.5 10.5 2.5
      vertex -8.5 0 -1
      vertex -8.5 19 -1
    endloop
  endfacet
  facet normal 1 0 0
    outer loop
      vertex -8.5 9.5 3
      vertex -8.5 7.5 3
      vertex -8.5 9.5 2.5
    endloop
  endfacet
  facet normal 1 0 0
    outer loop
      vertex -8.5 19 15
      vertex -8.5 12.5 15
      vertex -8.5 19 -1
    endloop
  endfacet
  facet normal 1 0 -0
    outer loop
      vertex -8.5 12.5 15
      vertex -8.5 10.5 13
      vertex -8.5 19 -1
    endloop
  endfacet
  facet normal 1 0 -0
    outer loop
      vertex -8.5 9.5 2.5
      vertex -8.5 0 -1
      vertex -8.5 10.5 2.5
    endloop
  endfacet
  facet normal 1 0 -0
    outer loop
      vertex -8.5 7.5 3
      vertex -8.5 0 -1
      vertex -8.5 9.5 2.5
    endloop
  endfacet
  facet normal 1 0 -0
    outer loop
      vertex -8.5 0 15
      vertex -8.5 0 -1
      vertex -8.5 7.5 3
    endloop
  endfacet
  facet normal 1 0 -0
    outer loop
      vertex -8.5 6.5 15
      vertex -8.5 0 15
      vertex -8.5 7.5 14
    endloop
  endfacet
  facet normal 1 0 -0
    outer loop
      vertex -8.5 10.5 13
      vertex -8.5 10.5 2.5
      vertex -8.5 19 -1
    endloop
  endfacet
  facet normal 1 0 0
    outer loop
      vertex -8.5 7.5 3
      vertex -8.5 7.5 14
      vertex -8.5 0 15
    endloop
  endfacet
  facet normal 0 -1 0
    outer loop
      vertex -5.87533 19 6.50077
      vertex -8.5 19 -1
      vertex 0 19 -1
    endloop
  endfacet
  facet normal 0 -1 0
    outer loop
      vertex -5.02533 19 5.8832
      vertex -5.87533 19 6.50077
      vertex 0 19 -1
    endloop
  endfacet
  facet normal 0 -1 0
    outer loop
      vertex -6.2 19 7.5
      vertex -8.5 19 -1
      vertex -5.87533 19 6.50077
    endloop
  endfacet
  facet normal 0 -1 0
    outer loop
      vertex -8.5 19 15
      vertex -8.5 19 -1
      vertex -6.2 19 7.5
    endloop
  endfacet
  facet normal 0 -1 0
    outer loop
      vertex -3.97467 19 5.8832
      vertex -5.02533 19 5.8832
      vertex 0 19 -1
    endloop
  endfacet
  facet normal 0 -1 0
    outer loop
      vertex 0 19 15
      vertex -8.5 19 15
      vertex -5.02533 19 9.1168
    endloop
  endfacet
  facet normal 0 -1 0
    outer loop
      vertex -3.12467 19 6.50077
      vertex -3.97467 19 5.8832
      vertex 0 19 -1
    endloop
  endfacet
  facet normal 0 -1 0
    outer loop
      vertex 0 19 15
      vertex -5.02533 19 9.1168
      vertex -3.97467 19 9.1168
    endloop
  endfacet
  facet normal 0 -1 0
    outer loop
      vertex 0 19 15
      vertex -3.12467 19 8.49924
      vertex 0 19 -1
    endloop
  endfacet
  facet normal 0 -1 0
    outer loop
      vertex 0 19 15
      vertex -3.97467 19 9.1168
      vertex -3.12467 19 8.49924
    endloop
  endfacet
  facet normal 0 -1 0
    outer loop
      vertex -3.12467 19 8.49924
      vertex -2.8 19 7.5
      vertex 0 19 -1
    endloop
  endfacet
  facet normal 0 -1 0
    outer loop
      vertex -2.8 19 7.5
      vertex -3.12467 19 6.50077
      vertex 0 19 -1
    endloop
  endfacet
  facet normal 0 -1 -0
    outer loop
      vertex -6.2 19 7.5
      vertex -5.87533 19 8.49924
      vertex -8.5 19 15
    endloop
  endfacet
  facet normal 0 -1 -0
    outer loop
      vertex -5.87533 19 8.49924
      vertex -5.02533 19 9.1168
      vertex -8.5 19 15
    endloop
  endfacet
  facet normal 1 0 -0
    outer loop
      vertex 0 19 15
      vertex 0 19 -1
      vertex 0 23 -1
    endloop
  endfacet
  facet normal 1 0 0
    outer loop
      vertex 0 23 15
      vertex 0 19 15
      vertex 0 23 -1
    endloop
  endfacet
  facet normal 0.951057 -6.86155e-017 0.309017
    outer loop
      vertex -5.87533 19 6.50077
      vertex -5.87533 23 6.50077
      vertex -6.2 23 7.5
    endloop
  endfacet
  facet normal 0.951057 -6.86155e-017 0.309017
    outer loop
      vertex -6.2 19 7.5
      vertex -5.87533 19 6.50077
      vertex -6.2 23 7.5
    endloop
  endfacet
  facet normal 0.951057 0 -0.309017
    outer loop
      vertex -6.2 23 7.5
      vertex -5.87533 23 8.49924
      vertex -5.87533 19 8.49924
    endloop
  endfacet
  facet normal 0.951057 6.86155e-017 -0.309017
    outer loop
      vertex -6.2 19 7.5
      vertex -6.2 23 7.5
      vertex -5.87533 19 8.49924
    endloop
  endfacet
  facet normal 0.587785 3.59276e-016 -0.809017
    outer loop
      vertex -5.02533 23 9.1168
      vertex -5.02533 19 9.1168
      vertex -5.87533 23 8.49924
    endloop
  endfacet
  facet normal 0.587785 0 -0.809017
    outer loop
      vertex -5.87533 23 8.49924
      vertex -5.02533 19 9.1168
      vertex -5.87533 19 8.49924
    endloop
  endfacet
  facet normal 0 4.44089e-016 -1
    outer loop
      vertex -3.97467 23 9.1168
      vertex -3.97467 19 9.1168
      vertex -5.02533 23 9.1168
    endloop
  endfacet
  facet normal 0 4.44089e-016 -1
    outer loop
      vertex -5.02533 23 9.1168
      vertex -3.97467 19 9.1168
      vertex -5.02533 19 9.1168
    endloop
  endfacet
  facet normal -0.587785 0 -0.809017
    outer loop
      vertex -3.12467 23 8.49924
      vertex -3.12467 19 8.49924
      vertex -3.97467 23 9.1168
    endloop
  endfacet
  facet normal -0.587785 3.59276e-016 -0.809017
    outer loop
      vertex -3.97467 23 9.1168
      vertex -3.12467 19 8.49924
      vertex -3.97467 19 9.1168
    endloop
  endfacet
  facet normal -0.951057 6.86155e-017 -0.309017
    outer loop
      vertex -2.8 23 7.5
      vertex -2.8 19 7.5
      vertex -3.12467 23 8.49924
    endloop
  endfacet
  facet normal -0.951057 0 -0.309017
    outer loop
      vertex -3.12467 23 8.49924
      vertex -2.8 19 7.5
      vertex -3.12467 19 8.49924
    endloop
  endfacet
  facet normal -0.951057 -6.86155e-017 0.309017
    outer loop
      vertex -2.8 23 7.5
      vertex -3.12467 23 6.50077
      vertex -2.8 19 7.5
    endloop
  endfacet
  facet normal -0.951057 -6.86102e-017 0.309017
    outer loop
      vertex -2.8 19 7.5
      vertex -3.12467 23 6.50077
      vertex -3.12467 19 6.50077
    endloop
  endfacet
  facet normal -0.587785 -1.79638e-016 0.809017
    outer loop
      vertex -3.12467 19 6.50077
      vertex -3.12467 23 6.50077
      vertex -3.97467 23 5.8832
    endloop
  endfacet
  facet normal -0.587785 -1.79638e-016 0.809017
    outer loop
      vertex -3.97467 19 5.8832
      vertex -3.12467 19 6.50077
      vertex -3.97467 23 5.8832
    endloop
  endfacet
  facet normal 0 -2.22045e-016 1
    outer loop
      vertex -3.97467 19 5.8832
      vertex -3.97467 23 5.8832
      vertex -5.02533 23 5.8832
    endloop
  endfacet
  facet normal 0 -2.22045e-016 1
    outer loop
      vertex -5.02533 19 5.8832
      vertex -3.97467 19 5.8832
      vertex -5.02533 23 5.8832
    endloop
  endfacet
  facet normal 0.587785 -1.79638e-016 0.809017
    outer loop
      vertex -5.02533 19 5.8832
      vertex -5.02533 23 5.8832
      vertex -5.87533 23 6.50077
    endloop
  endfacet
  facet normal 0.587785 -1.79638e-016 0.809017
    outer loop
      vertex -5.87533 19 6.50077
      vertex -5.02533 19 5.8832
      vertex -5.87533 23 6.50077
    endloop
  endfacet
  facet normal 9.56137e-019 -0.707107 0.707107
    outer loop
      vertex -8.5 10.5 13
      vertex -8.5 12.5 15
      vertex -41.5 12.5 15
    endloop
  endfacet
  facet normal 0 -0.707107 0.707107
    outer loop
      vertex -41.5 10.5 13
      vertex -8.5 10.5 13
      vertex -41.5 12.5 15
    endloop
  endfacet
  facet normal 0 -1 0
    outer loop
      vertex -8.5 10.5 2.5
      vertex -8.5 10.5 13
      vertex -41.5 10.5 13
    endloop
  endfacet
  facet normal -0 -1 -0
    outer loop
      vertex -41.5 10.5 2.5
      vertex -8.5 10.5 2.5
      vertex -41.5 10.5 13
    endloop
  endfacet
  facet normal 0 0 1
    outer loop
      vertex -8.5 9.5 2.5
      vertex -8.5 10.5 2.5
      vertex -41.5 10.5 2.5
    endloop
  endfacet
  facet normal 0 0 1
    outer loop
      vertex -41.5 9.5 2.5
      vertex -8.5 9.5 2.5
      vertex -41.5 10.5 2.5
    endloop
  endfacet
  facet normal 0 1 0
    outer loop
      vertex -41 9.5 3
      vertex -41 9.5 12
      vertex -40.2 9.5 12
    endloop
  endfacet
  facet normal 0 1 0
    outer loop
      vertex -41 9.5 3
      vertex -40.2 9.5 12
      vertex -40.2 9.5 3
    endloop
  endfacet
  facet normal 0 1 -0
    outer loop
      vertex -41 9.5 3
      vertex -8.5 9.5 2.5
      vertex -41.5 9.5 3
    endloop
  endfacet
  facet normal 0 1 -0
    outer loop
      vertex -40.2 9.5 3
      vertex -8.5 9.5 2.5
      vertex -41 9.5 3
    endloop
  endfacet
  facet normal 0 1 0
    outer loop
      vertex -38.5 9.5 3
      vertex -38.5 9.5 12
      vertex -37.7 9.5 12
    endloop
  endfacet
  facet normal 0 1 0
    outer loop
      vertex -38.5 9.5 3
      vertex -37.7 9.5 12
      vertex -37.7 9.5 3
    endloop
  endfacet
  facet normal 0 1 -0
    outer loop
      vertex -38.5 9.5 3
      vertex -8.5 9.5 2.5
      vertex -40.2 9.5 3
    endloop
  endfacet
  facet normal 0 1 -0
    outer loop
      vertex -37.7 9.5 3
      vertex -8.5 9.5 2.5
      vertex -38.5 9.5 3
    endloop
  endfacet
  facet normal 0 1 0
    outer loop
      vertex -36 9.5 3
      vertex -36 9.5 12
      vertex -35.2 9.5 12
    endloop
  endfacet
  facet normal 0 1 0
    outer loop
      vertex -36 9.5 3
      vertex -35.2 9.5 12
      vertex -35.2 9.5 3
    endloop
  endfacet
  facet normal 0 1 -0
    outer loop
      vertex -36 9.5 3
      vertex -8.5 9.5 2.5
      vertex -37.7 9.5 3
    endloop
  endfacet
  facet normal 0 1 -0
    outer loop
      vertex -35.2 9.5 3
      vertex -8.5 9.5 2.5
      vertex -36 9.5 3
    endloop
  endfacet
  facet normal 0 1 0
    outer loop
      vertex -33.5 9.5 3
      vertex -33.5 9.5 12
      vertex -32.7 9.5 12
    endloop
  endfacet
  facet normal 0 1 0
    outer loop
      vertex -33.5 9.5 3
      vertex -32.7 9.5 12
      vertex -32.7 9.5 3
    endloop
  endfacet
  facet normal 0 1 -0
    outer loop
      vertex -33.5 9.5 3
      vertex -8.5 9.5 2.5
      vertex -35.2 9.5 3
    endloop
  endfacet
  facet normal 0 1 -0
    outer loop
      vertex -32.7 9.5 3
      vertex -8.5 9.5 2.5
      vertex -33.5 9.5 3
    endloop
  endfacet
  facet normal 0 1 0
    outer loop
      vertex -31 9.5 3
      vertex -31 9.5 12
      vertex -30.2 9.5 12
    endloop
  endfacet
  facet normal 0 1 0
    outer loop
      vertex -31 9.5 3
      vertex -30.2 9.5 12
      vertex -30.2 9.5 3
    endloop
  endfacet
  facet normal 0 1 -0
    outer loop
      vertex -31 9.5 3
      vertex -8.5 9.5 2.5
      vertex -32.7 9.5 3
    endloop
  endfacet
  facet normal 0 1 -0
    outer loop
      vertex -30.2 9.5 3
      vertex -8.5 9.5 2.5
      vertex -31 9.5 3
    endloop
  endfacet
  facet normal 0 1 0
    outer loop
      vertex -28.5 9.5 3
      vertex -28.5 9.5 12
      vertex -27.7 9.5 12
    endloop
  endfacet
  facet normal 0 1 0
    outer loop
      vertex -28.5 9.5 3
      vertex -27.7 9.5 12
      vertex -27.7 9.5 3
    endloop
  endfacet
  facet normal 0 1 -0
    outer loop
      vertex -28.5 9.5 3
      vertex -8.5 9.5 2.5
      vertex -30.2 9.5 3
    endloop
  endfacet
  facet normal 0 1 -0
    outer loop
      vertex -27.7 9.5 3
      vertex -8.5 9.5 2.5
      vertex -28.5 9.5 3
    endloop
  endfacet
  facet normal 0 1 0
    outer loop
      vertex -23 9.5 3
      vertex -23 9.5 12
      vertex -22.7 9.5 12
    endloop
  endfacet
  facet normal 0 1 0
    outer loop
      vertex -23 9.5 3
      vertex -22.7 9.5 12
      vertex -22.7 9.5 3
    endloop
  endfacet
  facet normal 0 1 -0
    outer loop
      vertex -23 9.5 3
      vertex -8.5 9.5 2.5
      vertex -27.7 9.5 3
    endloop
  endfacet
  facet normal 0 1 -0
    outer loop
      vertex -22.7 9.5 3
      vertex -8.5 9.5 2.5
      vertex -23 9.5 3
    endloop
  endfacet
  facet normal 0 1 0
    outer loop
      vertex -21 9.5 3
      vertex -21 9.5 12
      vertex -20.2 9.5 12
    endloop
  endfacet
  facet normal 0 1 0
    outer loop
      vertex -21 9.5 3
      vertex -20.2 9.5 12
      vertex -20.2 9.5 3
    endloop
  endfacet
  facet normal 0 1 -0
    outer loop
      vertex -21 9.5 3
      vertex -8.5 9.5 2.5
      vertex -22.7 9.5 3
    endloop
  endfacet
  facet normal 0 1 -0
    outer loop
      vertex -20.2 9.5 3
      vertex -8.5 9.5 2.5
      vertex -21 9.5 3
    endloop
  endfacet
  facet normal 0 1 0
    outer loop
      vertex -18.5 9.5 3
      vertex -18.5 9.5 12
      vertex -17.7 9.5 12
    endloop
  endfacet
  facet normal 0 1 0
    outer loop
      vertex -18.5 9.5 3
      vertex -17.7 9.5 12
      vertex -17.7 9.5 3
    endloop
  endfacet
  facet normal 0 1 -0
    outer loop
      vertex -18.5 9.5 3
      vertex -8.5 9.5 2.5
      vertex -20.2 9.5 3
    endloop
  endfacet
  facet normal 0 1 -0
    outer loop
      vertex -17.7 9.5 3
      vertex -8.5 9.5 2.5
      vertex -18.5 9.5 3
    endloop
  endfacet
  facet normal 0 1 0
    outer loop
      vertex -16 9.5 3
      vertex -16 9.5 12
      vertex -15.2 9.5 12
    endloop
  endfacet
  facet normal 0 1 0
    outer loop
      vertex -16 9.5 3
      vertex -15.2 9.5 12
      vertex -15.2 9.5 3
    endloop
  endfacet
  facet normal 0 1 -0
    outer loop
      vertex -16 9.5 3
      vertex -8.5 9.5 2.5
      vertex -17.7 9.5 3
    endloop
  endfacet
  facet normal 0 1 -0
    outer loop
      vertex -15.2 9.5 3
      vertex -8.5 9.5 2.5
      vertex -16 9.5 3
    endloop
  endfacet
  facet normal 0 1 0
    outer loop
      vertex -13.5 9.5 3
      vertex -13.5 9.5 12
      vertex -12.7 9.5 12
    endloop
  endfacet
  facet normal 0 1 0
    outer loop
      vertex -13.5 9.5 3
      vertex -12.7 9.5 12
      vertex -12.7 9.5 3
    endloop
  endfacet
  facet normal 0 1 -0
    outer loop
      vertex -13.5 9.5 3
      vertex -8.5 9.5 2.5
      vertex -15.2 9.5 3
    endloop
  endfacet
  facet normal 0 1 -0
    outer loop
      vertex -12.7 9.5 3
      vertex -8.5 9.5 2.5
      vertex -13.5 9.5 3
    endloop
  endfacet
  facet normal 0 1 0
    outer loop
      vertex -11 9.5 3
      vertex -11 9.5 12
      vertex -10.2 9.5 12
    endloop
  endfacet
  facet normal 0 1 0
    outer loop
      vertex -11 9.5 3
      vertex -10.2 9.5 12
      vertex -10.2 9.5 3
    endloop
  endfacet
  facet normal 0 1 -0
    outer loop
      vertex -11 9.5 3
      vertex -8.5 9.5 2.5
      vertex -12.7 9.5 3
    endloop
  endfacet
  facet normal 0 1 0
    outer loop
      vertex -10.2 9.5 3
      vertex -8.5 9.5 3
      vertex -8.5 9.5 2.5
    endloop
  endfacet
  facet normal 0 1 -0
    outer loop
      vertex -10.2 9.5 3
      vertex -8.5 9.5 2.5
      vertex -11 9.5 3
    endloop
  endfacet
  facet normal -0 1 0
    outer loop
      vertex -8.5 9.5 2.5
      vertex -41.5 9.5 2.5
      vertex -41.5 9.5 3
    endloop
  endfacet
  facet normal 0 0 1
    outer loop
      vertex -41 7.5 3
      vertex -41 9.5 3
      vertex -41.5 9.5 3
    endloop
  endfacet
  facet normal 0 0 1
    outer loop
      vertex -41.5 7.5 3
      vertex -41 7.5 3
      vertex -41.5 9.5 3
    endloop
  endfacet
  facet normal 0 1 0
    outer loop
      vertex -41 7.5 14
      vertex -41 7.5 3
      vertex -41.5 7.5 14
    endloop
  endfacet
  facet normal 0 1 -0
    outer loop
      vertex -41.5 7.5 14
      vertex -41 7.5 3
      vertex -41.5 7.5 3
    endloop
  endfacet
  facet normal -0 0.707107 0.707107
    outer loop
      vertex -30.2 7.5 14
      vertex -31 7.5 14
      vertex -27 6.5 15
    endloop
  endfacet
  facet normal 0 0.707107 0.707107
    outer loop
      vertex -27 6.5 15
      vertex -27 7.5 14
      vertex -27.7 7.5 14
    endloop
  endfacet
  facet normal 0 0.707107 0.707107
    outer loop
      vertex -28.5 7.5 14
      vertex -27 6.5 15
      vertex -27.7 7.5 14
    endloop
  endfacet
  facet normal -0 0.707107 0.707107
    outer loop
      vertex -27.7 9.5 12
      vertex -28.5 9.5 12
      vertex -27.7 7.5 14
    endloop
  endfacet
  facet normal 0 0.707107 0.707107
    outer loop
      vertex -28.5 9.5 12
      vertex -28.5 7.5 14
      vertex -27.7 7.5 14
    endloop
  endfacet
  facet normal -0 0.707107 0.707107
    outer loop
      vertex -32.7 7.5 14
      vertex -33.5 7.5 14
      vertex -27 6.5 15
    endloop
  endfacet
  facet normal -0 0.707107 0.707107
    outer loop
      vertex -28.5 7.5 14
      vertex -30.2 7.5 14
      vertex -27 6.5 15
    endloop
  endfacet
  facet normal -0 0.707107 0.707107
    outer loop
      vertex -30.2 9.5 12
      vertex -31 9.5 12
      vertex -30.2 7.5 14
    endloop
  endfacet
  facet normal 0 0.707107 0.707107
    outer loop
      vertex -31 9.5 12
      vertex -31 7.5 14
      vertex -30.2 7.5 14
    endloop
  endfacet
  facet normal -0 0.707107 0.707107
    outer loop
      vertex -35.2 7.5 14
      vertex -36 7.5 14
      vertex -27 6.5 15
    endloop
  endfacet
  facet normal -0 0.707107 0.707107
    outer loop
      vertex -31 7.5 14
      vertex -32.7 7.5 14
      vertex -27 6.5 15
    endloop
  endfacet
  facet normal -0 0.707107 0.707107
    outer loop
      vertex -32.7 9.5 12
      vertex -33.5 9.5 12
      vertex -32.7 7.5 14
    endloop
  endfacet
  facet normal 0 0.707107 0.707107
    outer loop
      vertex -33.5 9.5 12
      vertex -33.5 7.5 14
      vertex -32.7 7.5 14
    endloop
  endfacet
  facet normal -0 0.707107 0.707107
    outer loop
      vertex -37.7 7.5 14
      vertex -38.5 7.5 14
      vertex -27 6.5 15
    endloop
  endfacet
  facet normal -0 0.707107 0.707107
    outer loop
      vertex -33.5 7.5 14
      vertex -35.2 7.5 14
      vertex -27 6.5 15
    endloop
  endfacet
  facet normal -0 0.707107 0.707107
    outer loop
      vertex -35.2 9.5 12
      vertex -36 9.5 12
      vertex -35.2 7.5 14
    endloop
  endfacet
  facet normal 0 0.707107 0.707107
    outer loop
      vertex -36 9.5 12
      vertex -36 7.5 14
      vertex -35.2 7.5 14
    endloop
  endfacet
  facet normal -0 0.707107 0.707107
    outer loop
      vertex -40.2 7.5 14
      vertex -41 7.5 14
      vertex -27 6.5 15
    endloop
  endfacet
  facet normal -0 0.707107 0.707107
    outer loop
      vertex -36 7.5 14
      vertex -37.7 7.5 14
      vertex -27 6.5 15
    endloop
  endfacet
  facet normal -0 0.707107 0.707107
    outer loop
      vertex -37.7 9.5 12
      vertex -38.5 9.5 12
      vertex -37.7 7.5 14
    endloop
  endfacet
  facet normal 0 0.707107 0.707107
    outer loop
      vertex -38.5 9.5 12
      vertex -38.5 7.5 14
      vertex -37.7 7.5 14
    endloop
  endfacet
  facet normal -0 0.707107 0.707107
    outer loop
      vertex -38.5 7.5 14
      vertex -40.2 7.5 14
      vertex -27 6.5 15
    endloop
  endfacet
  facet normal -0 0.707107 0.707107
    outer loop
      vertex -40.2 9.5 12
      vertex -41 9.5 12
      vertex -40.2 7.5 14
    endloop
  endfacet
  facet normal 0 0.707107 0.707107
    outer loop
      vertex -41 9.5 12
      vertex -41 7.5 14
      vertex -40.2 7.5 14
    endloop
  endfacet
  facet normal -0 0.707107 0.707107
    outer loop
      vertex -41 7.5 14
      vertex -41.5 7.5 14
      vertex -27 6.5 15
    endloop
  endfacet
  facet normal -2.82252e-018 0.707107 0.707107
    outer loop
      vertex -41.5 7.5 14
      vertex -41.5 6.5 15
      vertex -27 6.5 15
    endloop
  endfacet
  facet normal 0 -0 1
    outer loop
      vertex -41.5 6.5 15
      vertex -41.5 0 15
      vertex -27 0 15
    endloop
  endfacet
  facet normal 0 0 1
    outer loop
      vertex -27 6.5 15
      vertex -41.5 6.5 15
      vertex -27 0 15
    endloop
  endfacet
  facet normal 1 0 0
    outer loop
      vertex -27 7.5 3
      vertex -27 7.5 14
      vertex -27 6.5 15
    endloop
  endfacet
  facet normal 1 0 0
    outer loop
      vertex -27 0 3
      vertex -27 7.5 3
      vertex -27 0 15
    endloop
  endfacet
  facet normal 1 0 0
    outer loop
      vertex -27 0 15
      vertex -27 7.5 3
      vertex -27 6.5 15
    endloop
  endfacet
  facet normal 0 -0 1
    outer loop
      vertex -27 7.5 3
      vertex -27 0 3
      vertex -23 0 3
    endloop
  endfacet
  facet normal 0 0 1
    outer loop
      vertex -27.7 9.5 3
      vertex -27 7.5 3
      vertex -23 9.5 3
    endloop
  endfacet
  facet normal 0 0 1
    outer loop
      vertex -23 9.5 3
      vertex -27 7.5 3
      vertex -23 0 3
    endloop
  endfacet
  facet normal 0 0 1
    outer loop
      vertex -27.7 7.5 3
      vertex -27 7.5 3
      vertex -27.7 9.5 3
    endloop
  endfacet
  facet normal -1 0 0
    outer loop
      vertex -23 6.5 15
      vertex -23 9.5 12
      vertex -23 0 15
    endloop
  endfacet
  facet normal -1 0 0
    outer loop
      vertex -23 0 15
      vertex -23 9.5 12
      vertex -23 9.5 3
    endloop
  endfacet
  facet normal -1 0 0
    outer loop
      vertex -23 0 15
      vertex -23 9.5 3
      vertex -23 0 3
    endloop
  endfacet
  facet normal 0 -0 1
    outer loop
      vertex -23 6.5 15
      vertex -23 0 15
      vertex -8.5 0 15
    endloop
  endfacet
  facet normal 0 0 1
    outer loop
      vertex -8.5 6.5 15
      vertex -23 6.5 15
      vertex -8.5 0 15
    endloop
  endfacet
  facet normal -0 0.707107 0.707107
    outer loop
      vertex -12.7 7.5 14
      vertex -13.5 7.5 14
      vertex -8.5 6.5 15
    endloop
  endfacet
  facet normal 5.99518e-018 0.707107 0.707107
    outer loop
      vertex -8.5 6.5 15
      vertex -8.5 7.5 14
      vertex -10.2 7.5 14
    endloop
  endfacet
  facet normal 0 0.707107 0.707107
    outer loop
      vertex -11 7.5 14
      vertex -8.5 6.5 15
      vertex -10.2 7.5 14
    endloop
  endfacet
  facet normal -0 0.707107 0.707107
    outer loop
      vertex -10.2 9.5 12
      vertex -11 9.5 12
      vertex -10.2 7.5 14
    endloop
  endfacet
  facet normal 0 0.707107 0.707107
    outer loop
      vertex -11 9.5 12
      vertex -11 7.5 14
      vertex -10.2 7.5 14
    endloop
  endfacet
  facet normal -0 0.707107 0.707107
    outer loop
      vertex -15.2 7.5 14
      vertex -16 7.5 14
      vertex -8.5 6.5 15
    endloop
  endfacet
  facet normal -0 0.707107 0.707107
    outer loop
      vertex -11 7.5 14
      vertex -12.7 7.5 14
      vertex -8.5 6.5 15
    endloop
  endfacet
  facet normal -0 0.707107 0.707107
    outer loop
      vertex -12.7 9.5 12
      vertex -13.5 9.5 12
      vertex -12.7 7.5 14
    endloop
  endfacet
  facet normal 0 0.707107 0.707107
    outer loop
      vertex -13.5 9.5 12
      vertex -13.5 7.5 14
      vertex -12.7 7.5 14
    endloop
  endfacet
  facet normal -0 0.707107 0.707107
    outer loop
      vertex -17.7 7.5 14
      vertex -18.5 7.5 14
      vertex -8.5 6.5 15
    endloop
  endfacet
  facet normal -0 0.707107 0.707107
    outer loop
      vertex -13.5 7.5 14
      vertex -15.2 7.5 14
      vertex -8.5 6.5 15
    endloop
  endfacet
  facet normal -0 0.707107 0.707107
    outer loop
      vertex -15.2 9.5 12
      vertex -16 9.5 12
      vertex -15.2 7.5 14
    endloop
  endfacet
  facet normal 0 0.707107 0.707107
    outer loop
      vertex -16 9.5 12
      vertex -16 7.5 14
      vertex -15.2 7.5 14
    endloop
  endfacet
  facet normal -0 0.707107 0.707107
    outer loop
      vertex -20.2 7.5 14
      vertex -21 7.5 14
      vertex -8.5 6.5 15
    endloop
  endfacet
  facet normal -0 0.707107 0.707107
    outer loop
      vertex -16 7.5 14
      vertex -17.7 7.5 14
      vertex -8.5 6.5 15
    endloop
  endfacet
  facet normal -0 0.707107 0.707107
    outer loop
      vertex -17.7 9.5 12
      vertex -18.5 9.5 12
      vertex -17.7 7.5 14
    endloop
  endfacet
  facet normal 0 0.707107 0.707107
    outer loop
      vertex -18.5 9.5 12
      vertex -18.5 7.5 14
      vertex -17.7 7.5 14
    endloop
  endfacet
  facet normal -1.90318e-018 0.707107 0.707107
    outer loop
      vertex -22.7 7.5 14
      vertex -23 6.5 15
      vertex -8.5 6.5 15
    endloop
  endfacet
  facet normal -0 0.707107 0.707107
    outer loop
      vertex -18.5 7.5 14
      vertex -20.2 7.5 14
      vertex -8.5 6.5 15
    endloop
  endfacet
  facet normal -0 0.707107 0.707107
    outer loop
      vertex -20.2 9.5 12
      vertex -21 9.5 12
      vertex -20.2 7.5 14
    endloop
  endfacet
  facet normal 0 0.707107 0.707107
    outer loop
      vertex -21 9.5 12
      vertex -21 7.5 14
      vertex -20.2 7.5 14
    endloop
  endfacet
  facet normal -0 0.707107 0.707107
    outer loop
      vertex -21 7.5 14
      vertex -22.7 7.5 14
      vertex -8.5 6.5 15
    endloop
  endfacet
  facet normal -0 0.707107 0.707107
    outer loop
      vertex -22.7 9.5 12
      vertex -23 9.5 12
      vertex -22.7 7.5 14
    endloop
  endfacet
  facet normal 3.14018e-015 0.707107 0.707107
    outer loop
      vertex -23 9.5 12
      vertex -23 6.5 15
      vertex -22.7 7.5 14
    endloop
  endfacet
  facet normal 0 1 0
    outer loop
      vertex -8.5 7.5 14
      vertex -8.5 7.5 3
      vertex -10.2 7.5 14
    endloop
  endfacet
  facet normal 0 1 -0
    outer loop
      vertex -10.2 7.5 14
      vertex -8.5 7.5 3
      vertex -10.2 7.5 3
    endloop
  endfacet
  facet normal 0 0 1
    outer loop
      vertex -8.5 7.5 3
      vertex -8.5 9.5 3
      vertex -10.2 9.5 3
    endloop
  endfacet
  facet normal 0 0 1
    outer loop
      vertex -10.2 7.5 3
      vertex -8.5 7.5 3
      vertex -10.2 9.5 3
    endloop
  endfacet
  facet normal 1 0 0
    outer loop
      vertex -10.2 9.5 3
      vertex -10.2 9.5 12
      vertex -10.2 7.5 14
    endloop
  endfacet
  facet normal 1 0 0
    outer loop
      vertex -10.2 7.5 3
      vertex -10.2 9.5 3
      vertex -10.2 7.5 14
    endloop
  endfacet
  facet normal -1 0 0
    outer loop
      vertex -11 9.5 12
      vertex -11 9.5 3
      vertex -11 7.5 14
    endloop
  endfacet
  facet normal -1 0 0
    outer loop
      vertex -11 7.5 14
      vertex -11 9.5 3
      vertex -11 7.5 3
    endloop
  endfacet
  facet normal 0 0 1
    outer loop
      vertex -11 7.5 3
      vertex -11 9.5 3
      vertex -12.7 9.5 3
    endloop
  endfacet
  facet normal 0 0 1
    outer loop
      vertex -12.7 7.5 3
      vertex -11 7.5 3
      vertex -12.7 9.5 3
    endloop
  endfacet
  facet normal 1 0 0
    outer loop
      vertex -12.7 9.5 3
      vertex -12.7 9.5 12
      vertex -12.7 7.5 14
    endloop
  endfacet
  facet normal 1 0 0
    outer loop
      vertex -12.7 7.5 3
      vertex -12.7 9.5 3
      vertex -12.7 7.5 14
    endloop
  endfacet
  facet normal -1 0 0
    outer loop
      vertex -13.5 9.5 12
      vertex -13.5 9.5 3
      vertex -13.5 7.5 14
    endloop
  endfacet
  facet normal -1 0 0
    outer loop
      vertex -13.5 7.5 14
      vertex -13.5 9.5 3
      vertex -13.5 7.5 3
    endloop
  endfacet
  facet normal 0 0 1
    outer loop
      vertex -13.5 7.5 3
      vertex -13.5 9.5 3
      vertex -15.2 9.5 3
    endloop
  endfacet
  facet normal 0 0 1
    outer loop
      vertex -15.2 7.5 3
      vertex -13.5 7.5 3
      vertex -15.2 9.5 3
    endloop
  endfacet
  facet normal 1 0 0
    outer loop
      vertex -15.2 9.5 3
      vertex -15.2 9.5 12
      vertex -15.2 7.5 14
    endloop
  endfacet
  facet normal 1 0 0
    outer loop
      vertex -15.2 7.5 3
      vertex -15.2 9.5 3
      vertex -15.2 7.5 14
    endloop
  endfacet
  facet normal -1 0 0
    outer loop
      vertex -16 9.5 12
      vertex -16 9.5 3
      vertex -16 7.5 14
    endloop
  endfacet
  facet normal -1 0 0
    outer loop
      vertex -16 7.5 14
      vertex -16 9.5 3
      vertex -16 7.5 3
    endloop
  endfacet
  facet normal 0 0 1
    outer loop
      vertex -16 7.5 3
      vertex -16 9.5 3
      vertex -17.7 9.5 3
    endloop
  endfacet
  facet normal 0 0 1
    outer loop
      vertex -17.7 7.5 3
      vertex -16 7.5 3
      vertex -17.7 9.5 3
    endloop
  endfacet
  facet normal 1 0 0
    outer loop
      vertex -17.7 9.5 3
      vertex -17.7 9.5 12
      vertex -17.7 7.5 14
    endloop
  endfacet
  facet normal 1 0 0
    outer loop
      vertex -17.7 7.5 3
      vertex -17.7 9.5 3
      vertex -17.7 7.5 14
    endloop
  endfacet
  facet normal -1 0 0
    outer loop
      vertex -18.5 9.5 12
      vertex -18.5 9.5 3
      vertex -18.5 7.5 14
    endloop
  endfacet
  facet normal -1 0 0
    outer loop
      vertex -18.5 7.5 14
      vertex -18.5 9.5 3
      vertex -18.5 7.5 3
    endloop
  endfacet
  facet normal 0 0 1
    outer loop
      vertex -18.5 7.5 3
      vertex -18.5 9.5 3
      vertex -20.2 9.5 3
    endloop
  endfacet
  facet normal 0 0 1
    outer loop
      vertex -20.2 7.5 3
      vertex -18.5 7.5 3
      vertex -20.2 9.5 3
    endloop
  endfacet
  facet normal 1 0 0
    outer loop
      vertex -20.2 9.5 3
      vertex -20.2 9.5 12
      vertex -20.2 7.5 14
    endloop
  endfacet
  facet normal 1 0 0
    outer loop
      vertex -20.2 7.5 3
      vertex -20.2 9.5 3
      vertex -20.2 7.5 14
    endloop
  endfacet
  facet normal -1 0 0
    outer loop
      vertex -21 9.5 12
      vertex -21 9.5 3
      vertex -21 7.5 14
    endloop
  endfacet
  facet normal -1 0 0
    outer loop
      vertex -21 7.5 14
      vertex -21 9.5 3
      vertex -21 7.5 3
    endloop
  endfacet
  facet normal 0 0 1
    outer loop
      vertex -21 7.5 3
      vertex -21 9.5 3
      vertex -22.7 9.5 3
    endloop
  endfacet
  facet normal 0 0 1
    outer loop
      vertex -22.7 7.5 3
      vertex -21 7.5 3
      vertex -22.7 9.5 3
    endloop
  endfacet
  facet normal 1 0 0
    outer loop
      vertex -22.7 9.5 3
      vertex -22.7 9.5 12
      vertex -22.7 7.5 14
    endloop
  endfacet
  facet normal 1 0 0
    outer loop
      vertex -22.7 7.5 3
      vertex -22.7 9.5 3
      vertex -22.7 7.5 14
    endloop
  endfacet
  facet normal 1 0 0
    outer loop
      vertex -27.7 9.5 3
      vertex -27.7 9.5 12
      vertex -27.7 7.5 14
    endloop
  endfacet
  facet normal 1 0 0
    outer loop
      vertex -27.7 7.5 3
      vertex -27.7 9.5 3
      vertex -27.7 7.5 14
    endloop
  endfacet
  facet normal -1 0 0
    outer loop
      vertex -28.5 9.5 12
      vertex -28.5 9.5 3
      vertex -28.5 7.5 14
    endloop
  endfacet
  facet normal -1 0 0
    outer loop
      vertex -28.5 7.5 14
      vertex -28.5 9.5 3
      vertex -28.5 7.5 3
    endloop
  endfacet
  facet normal 0 0 1
    outer loop
      vertex -28.5 7.5 3
      vertex -28.5 9.5 3
      vertex -30.2 9.5 3
    endloop
  endfacet
  facet normal 0 0 1
    outer loop
      vertex -30.2 7.5 3
      vertex -28.5 7.5 3
      vertex -30.2 9.5 3
    endloop
  endfacet
  facet normal 1 0 0
    outer loop
      vertex -30.2 9.5 3
      vertex -30.2 9.5 12
      vertex -30.2 7.5 14
    endloop
  endfacet
  facet normal 1 0 0
    outer loop
      vertex -30.2 7.5 3
      vertex -30.2 9.5 3
      vertex -30.2 7.5 14
    endloop
  endfacet
  facet normal -1 0 0
    outer loop
      vertex -31 9.5 12
      vertex -31 9.5 3
      vertex -31 7.5 14
    endloop
  endfacet
  facet normal -1 0 0
    outer loop
      vertex -31 7.5 14
      vertex -31 9.5 3
      vertex -31 7.5 3
    endloop
  endfacet
  facet normal 0 0 1
    outer loop
      vertex -31 7.5 3
      vertex -31 9.5 3
      vertex -32.7 9.5 3
    endloop
  endfacet
  facet normal 0 0 1
    outer loop
      vertex -32.7 7.5 3
      vertex -31 7.5 3
      vertex -32.7 9.5 3
    endloop
  endfacet
  facet normal 1 0 0
    outer loop
      vertex -32.7 9.5 3
      vertex -32.7 9.5 12
      vertex -32.7 7.5 14
    endloop
  endfacet
  facet normal 1 0 0
    outer loop
      vertex -32.7 7.5 3
      vertex -32.7 9.5 3
      vertex -32.7 7.5 14
    endloop
  endfacet
  facet normal -1 0 0
    outer loop
      vertex -33.5 9.5 12
      vertex -33.5 9.5 3
      vertex -33.5 7.5 14
    endloop
  endfacet
  facet normal -1 0 0
    outer loop
      vertex -33.5 7.5 14
      vertex -33.5 9.5 3
      vertex -33.5 7.5 3
    endloop
  endfacet
  facet normal 0 0 1
    outer loop
      vertex -33.5 7.5 3
      vertex -33.5 9.5 3
      vertex -35.2 9.5 3
    endloop
  endfacet
  facet normal 0 0 1
    outer loop
      vertex -35.2 7.5 3
      vertex -33.5 7.5 3
      vertex -35.2 9.5 3
    endloop
  endfacet
  facet normal 1 0 0
    outer loop
      vertex -35.2 9.5 3
      vertex -35.2 9.5 12
      vertex -35.2 7.5 14
    endloop
  endfacet
  facet normal 1 0 0
    outer loop
      vertex -35.2 7.5 3
      vertex -35.2 9.5 3
      vertex -35.2 7.5 14
    endloop
  endfacet
  facet normal -1 0 0
    outer loop
      vertex -36 9.5 12
      vertex -36 9.5 3
      vertex -36 7.5 14
    endloop
  endfacet
  facet normal -1 0 0
    outer loop
      vertex -36 7.5 14
      vertex -36 9.5 3
      vertex -36 7.5 3
    endloop
  endfacet
  facet normal 0 0 1
    outer loop
      vertex -36 7.5 3
      vertex -36 9.5 3
      vertex -37.7 9.5 3
    endloop
  endfacet
  facet normal 0 0 1
    outer loop
      vertex -37.7 7.5 3
      vertex -36 7.5 3
      vertex -37.7 9.5 3
    endloop
  endfacet
  facet normal 1 0 0
    outer loop
      vertex -37.7 9.5 3
      vertex -37.7 9.5 12
      vertex -37.7 7.5 14
    endloop
  endfacet
  facet normal 1 0 0
    outer loop
      vertex -37.7 7.5 3
      vertex -37.7 9.5 3
      vertex -37.7 7.5 14
    endloop
  endfacet
  facet normal -1 0 0
    outer loop
      vertex -38.5 9.5 12
      vertex -38.5 9.5 3
      vertex -38.5 7.5 14
    endloop
  endfacet
  facet normal -1 0 0
    outer loop
      vertex -38.5 7.5 14
      vertex -38.5 9.5 3
      vertex -38.5 7.5 3
    endloop
  endfacet
  facet normal 0 0 1
    outer loop
      vertex -38.5 7.5 3
      vertex -38.5 9.5 3
      vertex -40.2 9.5 3
    endloop
  endfacet
  facet normal 0 0 1
    outer loop
      vertex -40.2 7.5 3
      vertex -38.5 7.5 3
      vertex -40.2 9.5 3
    endloop
  endfacet
  facet normal 1 0 0
    outer loop
      vertex -40.2 9.5 3
      vertex -40.2 9.5 12
      vertex -40.2 7.5 14
    endloop
  endfacet
  facet normal 1 0 0
    outer loop
      vertex -40.2 7.5 3
      vertex -40.2 9.5 3
      vertex -40.2 7.5 14
    endloop
  endfacet
  facet normal -1 0 0
    outer loop
      vertex -41 9.5 12
      vertex -41 9.5 3
      vertex -41 7.5 14
    endloop
  endfacet
  facet normal -1 0 0
    outer loop
      vertex -41 7.5 14
      vertex -41 9.5 3
      vertex -41 7.5 3
    endloop
  endfacet
  facet normal 0 1 0
    outer loop
      vertex -38.5 7.5 14
      vertex -38.5 7.5 3
      vertex -40.2 7.5 14
    endloop
  endfacet
  facet normal 0 1 -0
    outer loop
      vertex -40.2 7.5 14
      vertex -38.5 7.5 3
      vertex -40.2 7.5 3
    endloop
  endfacet
  facet normal 0 1 0
    outer loop
      vertex -36 7.5 14
      vertex -36 7.5 3
      vertex -37.7 7.5 14
    endloop
  endfacet
  facet normal 0 1 -0
    outer loop
      vertex -37.7 7.5 14
      vertex -36 7.5 3
      vertex -37.7 7.5 3
    endloop
  endfacet
  facet normal 0 1 0
    outer loop
      vertex -33.5 7.5 14
      vertex -33.5 7.5 3
      vertex -35.2 7.5 14
    endloop
  endfacet
  facet normal 0 1 -0
    outer loop
      vertex -35.2 7.5 14
      vertex -33.5 7.5 3
      vertex -35.2 7.5 3
    endloop
  endfacet
  facet normal 0 1 0
    outer loop
      vertex -31 7.5 14
      vertex -31 7.5 3
      vertex -32.7 7.5 14
    endloop
  endfacet
  facet normal 0 1 -0
    outer loop
      vertex -32.7 7.5 14
      vertex -31 7.5 3
      vertex -32.7 7.5 3
    endloop
  endfacet
  facet normal 0 1 0
    outer loop
      vertex -28.5 7.5 14
      vertex -28.5 7.5 3
      vertex -30.2 7.5 14
    endloop
  endfacet
  facet normal 0 1 -0
    outer loop
      vertex -30.2 7.5 14
      vertex -28.5 7.5 3
      vertex -30.2 7.5 3
    endloop
  endfacet
  facet normal 0 1 0
    outer loop
      vertex -27 7.5 14
      vertex -27 7.5 3
      vertex -27.7 7.5 14
    endloop
  endfacet
  facet normal 0 1 -0
    outer loop
      vertex -27.7 7.5 14
      vertex -27 7.5 3
      vertex -27.7 7.5 3
    endloop
  endfacet
  facet normal 0 1 0
    outer loop
      vertex -21 7.5 14
      vertex -21 7.5 3
      vertex -22.7 7.5 14
    endloop
  endfacet
  facet normal 0 1 -0
    outer loop
      vertex -22.7 7.5 14
      vertex -21 7.5 3
      vertex -22.7 7.5 3
    endloop
  endfacet
  facet normal 0 1 0
    outer loop
      vertex -18.5 7.5 14
      vertex -18.5 7.5 3
      vertex -20.2 7.5 14
    endloop
  endfacet
  facet normal 0 1 -0
    outer loop
      vertex -20.2 7.5 14
      vertex -18.5 7.5 3
      vertex -20.2 7.5 3
    endloop
  endfacet
  facet normal 0 1 0
    outer loop
      vertex -16 7.5 14
      vertex -16 7.5 3
      vertex -17.7 7.5 14
    endloop
  endfacet
  facet normal 0 1 -0
    outer loop
      vertex -17.7 7.5 14
      vertex -16 7.5 3
      vertex -17.7 7.5 3
    endloop
  endfacet
  facet normal 0 1 0
    outer loop
      vertex -13.5 7.5 14
      vertex -13.5 7.5 3
      vertex -15.2 7.5 14
    endloop
  endfacet
  facet normal 0 1 -0
    outer loop
      vertex -15.2 7.5 14
      vertex -13.5 7.5 3
      vertex -15.2 7.5 3
    endloop
  endfacet
  facet normal 0 1 0
    outer loop
      vertex -11 7.5 14
      vertex -11 7.5 3
      vertex -12.7 7.5 14
    endloop
  endfacet
  facet normal 0 1 -0
    outer loop
      vertex -12.7 7.5 14
      vertex -11 7.5 3
      vertex -12.7 7.5 3
    endloop
  endfacet
endsolid OpenSCAD_Model
